# xmcd
#
# Track frame offsets: 
#        150
#        14357
#        32009
#        50857
#        71039
#        89119
#        102354
#        120603
#        133793
#        160488
#        181677
#
# Disc length: 2674 seconds
#
# Revision: 1
# Processed by: cddbd v1.5.2PL0 Copyright (c) Steve Scherf et al.
# Submitted via: ExactAudioCopyFreeDBPlugin 1.0
#
DISCID=9d0a700b
DTITLE=Giedrius ir Agne Arbaciauskai - Vienaragis
DYEAR=2008
DGENRE=Ballad
TTITLE0=Vienaragis
TTITLE1=Kylo vejas
TTITLE2=Kovo mieste
TTITLE3=Grazuole - angele
TTITLE4=Baltas rukas
TTITLE5=Liepsnaboksciai klevai
TTITLE6=Drakonas
TTITLE7=Eldorado
TTITLE8=Draugams
TTITLE9=Danguje
TTITLE10=Za godom god
EXTD=
EXTT0=
EXTT1=
EXTT2=
EXTT3=
EXTT4=
EXTT5=
EXTT6=
EXTT7=
EXTT8=
EXTT9=
EXTT10=
PLAYORDER=
